<svg width="112" height="42" viewBox="0 0 112 42" fill="none" xmlns="http://www.w3.org/2000/svg">
<g clip-path="url(#clip0_1_440)">
<path fill-rule="evenodd" clip-rule="evenodd" d="M5.99995 0.999978H106C108.761 0.999978 111 3.23816 111 5.99995V35.9999C111 38.7612 108.761 40.9999 106 40.9999H5.99995C3.23859 40.9999 0.999936 38.7612 0.999936 35.9999V5.99995C0.999936 3.23816 3.23859 0.999978 5.99995 0.999978Z" fill="#FCF2E8"/>
<path d="M19.696 26V16.448H16.432V14.8H25.024V16.448H21.744V26H19.696ZM25.5519 26V18.064H27.3759L27.5679 19.552C27.8559 19.04 28.2452 18.6347 28.7359 18.336C29.2372 18.0267 29.8239 17.872 30.4959 17.872V20.032H29.9199C29.4719 20.032 29.0719 20.1013 28.7199 20.24C28.3679 20.3787 28.0905 20.6187 27.8879 20.96C27.6959 21.3013 27.5999 21.776 27.5999 22.384V26H25.5519ZM32.7276 29.52L34.5676 25.472H34.0876L30.9996 18.064H33.2236L35.4476 23.648L37.7676 18.064H39.9436L34.9036 29.52H32.7276ZM45.143 26V19.776H44.055V18.064H45.143V17.136C45.143 16.176 45.383 15.4933 45.863 15.088C46.3537 14.6827 47.015 14.48 47.847 14.48H48.727V16.224H48.167C47.815 16.224 47.5643 16.2933 47.415 16.432C47.2657 16.5707 47.191 16.8053 47.191 17.136V18.064H48.903V19.776H47.191V26H45.143ZM53.8605 26.192C53.0925 26.192 52.3992 26.016 51.7805 25.664C51.1725 25.312 50.6872 24.8267 50.3245 24.208C49.9725 23.5787 49.7965 22.8533 49.7965 22.032C49.7965 21.2107 49.9778 20.4907 50.3405 19.872C50.7032 19.2427 51.1885 18.752 51.7965 18.4C52.4152 18.048 53.1085 17.872 53.8765 17.872C54.6338 17.872 55.3165 18.048 55.9245 18.4C56.5432 18.752 57.0285 19.2427 57.3805 19.872C57.7432 20.4907 57.9245 21.2107 57.9245 22.032C57.9245 22.8533 57.7432 23.5787 57.3805 24.208C57.0285 24.8267 56.5432 25.312 55.9245 25.664C55.3058 26.016 54.6178 26.192 53.8605 26.192ZM53.8605 24.416C54.3938 24.416 54.8578 24.2187 55.2525 23.824C55.6472 23.4187 55.8445 22.8213 55.8445 22.032C55.8445 21.2427 55.6472 20.6507 55.2525 20.256C54.8578 19.8507 54.3992 19.648 53.8765 19.648C53.3325 19.648 52.8632 19.8507 52.4685 20.256C52.0845 20.6507 51.8925 21.2427 51.8925 22.032C51.8925 22.8213 52.0845 23.4187 52.4685 23.824C52.8632 24.2187 53.3272 24.416 53.8605 24.416ZM59.5956 26V18.064H61.4196L61.6116 19.552C61.8996 19.04 62.289 18.6347 62.7796 18.336C63.281 18.0267 63.8676 17.872 64.5396 17.872V20.032H63.9636C63.5156 20.032 63.1156 20.1013 62.7636 20.24C62.4116 20.3787 62.1343 20.6187 61.9316 20.96C61.7396 21.3013 61.6436 21.776 61.6436 22.384V26H59.5956ZM69.4799 26V14.8H76.7119V16.448H71.5279V19.584H75.7199V21.2H71.5279V26H69.4799ZM78.0844 26V18.064H79.9084L80.1004 19.552C80.3884 19.04 80.7777 18.6347 81.2684 18.336C81.7697 18.0267 82.3564 17.872 83.0284 17.872V20.032H82.4524C82.0044 20.032 81.6044 20.1013 81.2524 20.24C80.9004 20.3787 80.623 20.6187 80.4204 20.96C80.2284 21.3013 80.1324 21.776 80.1324 22.384V26H78.0844ZM87.9835 26.192C87.1835 26.192 86.4742 26.0213 85.8555 25.68C85.2368 25.3387 84.7515 24.8587 84.3995 24.24C84.0475 23.6213 83.8715 22.9067 83.8715 22.096C83.8715 21.2747 84.0422 20.544 84.3835 19.904C84.7355 19.264 85.2155 18.768 85.8235 18.416C86.4422 18.0533 87.1675 17.872 87.9995 17.872C88.7782 17.872 89.4662 18.0427 90.0635 18.384C90.6608 18.7253 91.1248 19.1947 91.4555 19.792C91.7968 20.3787 91.9675 21.0347 91.9675 21.76C91.9675 21.8773 91.9622 22 91.9515 22.128C91.9515 22.256 91.9462 22.3893 91.9355 22.528H85.9035C85.9462 23.1467 86.1595 23.632 86.5435 23.984C86.9382 24.336 87.4128 24.512 87.9675 24.512C88.3835 24.512 88.7302 24.4213 89.0075 24.24C89.2955 24.048 89.5088 23.8027 89.6475 23.504H91.7275C91.5782 24.0053 91.3275 24.464 90.9755 24.88C90.6342 25.2853 90.2075 25.6053 89.6955 25.84C89.1942 26.0747 88.6235 26.192 87.9835 26.192ZM87.9995 19.536C87.4982 19.536 87.0555 19.68 86.6715 19.968C86.2875 20.2453 86.0422 20.672 85.9355 21.248H89.8875C89.8555 20.7253 89.6635 20.3093 89.3115 20C88.9595 19.6907 88.5222 19.536 87.9995 19.536ZM97.386 26.192C96.586 26.192 95.8767 26.0213 95.258 25.68C94.6393 25.3387 94.154 24.8587 93.802 24.24C93.45 23.6213 93.274 22.9067 93.274 22.096C93.274 21.2747 93.4447 20.544 93.786 19.904C94.138 19.264 94.618 18.768 95.226 18.416C95.8447 18.0533 96.57 17.872 97.402 17.872C98.1807 17.872 98.8687 18.0427 99.466 18.384C100.063 18.7253 100.527 19.1947 100.858 19.792C101.199 20.3787 101.37 21.0347 101.37 21.76C101.37 21.8773 101.365 22 101.354 22.128C101.354 22.256 101.349 22.3893 101.338 22.528H95.306C95.3487 23.1467 95.562 23.632 95.946 23.984C96.3407 24.336 96.8153 24.512 97.37 24.512C97.786 24.512 98.1327 24.4213 98.41 24.24C98.698 24.048 98.9113 23.8027 99.05 23.504H101.13C100.981 24.0053 100.73 24.464 100.378 24.88C100.037 25.2853 99.61 25.6053 99.098 25.84C98.5967 26.0747 98.026 26.192 97.386 26.192ZM97.402 19.536C96.9007 19.536 96.458 19.68 96.074 19.968C95.69 20.2453 95.4447 20.672 95.338 21.248H99.29C99.258 20.7253 99.066 20.3093 98.714 20C98.362 19.6907 97.9247 19.536 97.402 19.536Z" fill="#EF9E48"/>
</g>
<defs>
<clipPath id="clip0_1_440">
<rect width="112" height="42" fill="white"/>
</clipPath>
</defs>
</svg>
